<svg height="512pt" viewBox="0 0 512.00023 512" width="512pt" xmlns="http://www.w3.org/2000/svg"><path d="m90.125 325.105469h-80.109375c-5.519531 0-9.9960938 4.476562-9.9960938 9.996093 0 5.523438 4.4765628 10 9.9960938 10h80.109375c86.496094 0 156.863281 70.367188 156.863281 156.863282 0 5.523437 4.476563 10 10 10 5.519531 0 10-4.476563 10-10 0-97.523438-79.339843-176.859375-176.863281-176.859375zm0 0"/><path d="m90.125 405.097656h-80.109375c-5.519531 0-9.9960938 4.476563-9.9960938 10 0 5.523438 4.4765628 10 9.9960938 10h80.109375c42.386719 0 76.867188 34.480469 76.867188 76.867188 0 5.523437 4.476562 10 10 10 5.523437 0 10-4.476563 10-10 0-53.414063-43.453126-96.867188-96.867188-96.867188zm0 0"/><path d="m501.984375 245.109375h-3.828125c11.816406-13.734375 16.453125-32.117187 12.414062-50.027344-.847656-3.765625-3.789062-6.703125-7.554687-7.554687-19.335937-4.359375-39.238281 1.390625-53.230469 15.382812-2.542968 2.542969-4.808594 5.28125-6.796875 8.175782-1.988281-2.890626-4.253906-5.632813-6.796875-8.175782-13.992187-13.992187-33.890625-19.742187-53.230468-15.382812-3.765626.851562-6.707032 3.789062-7.554688 7.554687-4.265625 18.910157 1.140625 38.347657 14.460938 52.28125-45.152344 5.992188-87.824219 23.855469-123.867188 51.976563v-75.507813c3.789062.445313 7.574219.675781 11.339844.675781 25.164062-.003906 49.457031-9.878906 67.726562-28.148437 23.429688-23.429687 33.058594-56.753906 25.753906-89.140625-.851562-3.765625-3.789062-6.707031-7.554687-7.554688-20.457031-4.613281-41.28125-2.464843-59.757813 5.640626 1.742188-7.273438 2.65625-14.820313 2.65625-22.515626 0-33.136718-16.753906-63.503906-44.820312-81.242187-3.261719-2.0625-7.421875-2.0625-10.683594 0-28.066406 17.738281-44.820312 48.105469-44.820312 81.242187 0 7.695313.914062 15.242188 2.65625 22.519532-18.476563-8.109375-39.300782-10.257813-59.757813-5.644532-3.765625.847657-6.707031 3.789063-7.554687 7.554688-7.304688 32.386719 2.324218 65.710938 25.753906 89.140625 18.269531 18.269531 42.558594 28.148437 67.726562 28.148437 3.765626 0 7.550782-.230468 11.335938-.675781v73.949219c-36.066406-27.652344-78.476562-45.050781-123.613281-50.671875 13.140625-13.917969 18.449219-33.234375 14.210937-52.027344-.847656-3.765625-3.789062-6.703125-7.554687-7.554687-19.335938-4.359375-39.238281 1.390625-53.230469 15.382812-2.542969 2.542969-4.808594 5.28125-6.796875 8.175782-1.988281-2.890626-4.253906-5.632813-6.796875-8.175782-13.996094-13.992187-33.894531-19.742187-53.234375-15.382812-3.765625.851562-6.707031 3.789062-7.554687 7.554687-4.039063 17.910157.597656 36.292969 12.414062 50.027344h-3.828125c-5.519531 0-9.9960938 4.476563-9.9960938 10s4.4765628 10 9.9960938 10h80.109375c130.605469 0 236.855469 106.253906 236.855469 236.855469 0 .6875.070312 1.363281.203125 2.015625.933594 4.554687 4.964844 7.984375 9.796875 7.984375 5.523437 0 10-4.476563 10-10 0-42.386719 34.484375-76.867188 76.867187-76.867188h78.136719c5.519531 0 9.996094-4.476562 9.996094-10 0-5.523437-4.476563-10-9.996094-10h-78.136719c-34.503906 0-64.847656 18.136719-82.007812 45.375-4.601563-22.738281-12.253906-44.621094-22.746094-65.160156 28.859375-25.984375 65.773438-40.210938 104.753906-40.210938h38.136719c5.523437 0 10-4.476562 10-10 0-5.519531-4.476563-9.996093-10-9.996093h-38.136719c-42.46875 0-82.757812 14.96875-114.78125 42.394531-10.429687-16.90625-22.890625-32.726562-37.289062-47.128906 42.589844-35.710938 96.179687-55.261719 152.070312-55.261719h78.136719c5.519531 0 9.996094-4.476563 9.996094-10s-4.476563-10-9.996094-10zm-38.058594-28.058594c7.511719-7.511719 17.640625-11.363281 28.03125-10.910156.46875 10.390625-3.394531 20.519531-10.910156 28.035156-6.960937 6.960938-16.167969 10.78125-25.753906 10.933594h-.917969c-.453125-.003906-.90625-.003906-1.359375-.023437-.015625-.386719-.015625-.769532-.023437-1.152344.003906-.398438.003906-.800782 0-1.199219.171874-9.554687 3.988281-18.738281 10.933593-25.683594zm-69.910156-10.910156c10.386719-.457031 20.519531 3.398437 28.035156 10.910156 6.941407 6.945313 10.761719 16.128907 10.933594 25.683594-.003906.398437-.007813.796875-.003906 1.199219-.003907.382812-.003907.765625-.019531 1.152344-.472657.019531-.941407.019531-1.414063.023437h-.816406c-9.601563-.148437-18.832031-3.960937-25.804688-10.9375-7.511719-7.511719-11.375-17.640625-10.910156-28.03125zm-105.75-66.582031c17.011719-17.015625 40.621094-24.835938 64.207031-21.550782 3.285156 23.585938-4.535156 47.195313-21.546875 64.207032-13.765625 13.765625-31.851562 21.511718-50.746093 22.226562l34.886718-34.882812c3.902344-3.90625 3.902344-10.238282 0-14.144532-3.90625-3.902343-10.238281-3.902343-14.140625 0l-34.886719 34.886719c.628907-16.574219 6.667969-32.519531 17.429688-45.476562.273438-.324219.550781-.640625.820312-.96875 1.265626-1.472657 2.585938-2.90625 3.976563-4.296875zm-32.265625-117.410156c19 14.355468 30.164062 36.578124 30.164062 60.640624 0 19.464844-7.308593 37.726563-20.164062 51.597657v-45.894531c0-5.519532-4.476562-10-10-10s-10 4.480468-10 10v45.894531c-12.851562-13.867188-20.164062-32.132813-20.164062-51.597657 0-24.0625 11.164062-46.285156 30.164062-60.640624zm-96.472656 95.859374c23.585937-3.28125 47.195312 4.539063 64.207031 21.550782 1.390625 1.386718 2.710937 2.824218 3.976563 4.300781.269531.324219.546874.640625.820312.964844 10.761719 12.957031 16.800781 28.902343 17.429688 45.476562l-34.882813-34.882812c-3.90625-3.90625-10.238281-3.90625-14.144531 0-3.902344 3.902343-3.902344 10.234375 0 14.140625l34.886718 34.886718c-18.894531-.71875-36.980468-8.460937-50.742187-22.226562-17.015625-17.015625-24.835937-40.625-21.550781-64.210938zm-69.574219 99.042969c7.511719-7.511719 17.644531-11.363281 28.03125-10.910156.464844 10.390625-3.398437 20.519531-10.910156 28.035156-6.964844 6.960938-16.175781 10.78125-25.757813 10.933594h-.914062c-.453125-.003906-.90625-.003906-1.359375-.023437-.019531-.386719-.015625-.769532-.023438-1.152344.003907-.398438.003907-.800782-.003906-1.199219.175781-9.554687 3.992187-18.738281 10.9375-25.683594zm-59 17.121094c-7.511719-7.511719-11.375-17.640625-10.910156-28.03125 10.390625-.460937 20.519531 3.398437 28.03125 10.910156 6.945312 6.941407 10.765625 16.125 10.9375 25.683594-.003907.398437-.007813.796875-.003907 1.195313-.003906.386718-.003906.769531-.023437 1.152343-.46875.023438-.941406.023438-1.410156.027344h-.816407c-9.601562-.148437-18.832031-3.960937-25.804687-10.9375zm0 0"/><path d="m501.984375 325.105469c-2.632813 0-5.210937 1.0625-7.070313 2.929687-1.859374 1.859375-2.929687 4.429688-2.929687 7.070313 0 2.628906 1.070313 5.210937 2.929687 7.070312 1.859376 1.859375 4.4375 2.929688 7.070313 2.929688 2.628906 0 5.207031-1.070313 7.066406-2.929688 1.863281-1.859375 2.929688-4.441406 2.929688-7.070312 0-2.640625-1.066407-5.210938-2.929688-7.070313-1.859375-1.867187-4.4375-2.929687-7.066406-2.929687zm0 0"/></svg>