<svg id="Capa_1" enable-background="new 0 0 512 512" height="512" viewBox="0 0 512 512" width="512" xmlns="http://www.w3.org/2000/svg"><g><circle cx="416" cy="256" r="10"/><circle cx="376" cy="216" r="10"/><circle cx="356" cy="276" r="10"/><circle cx="296" cy="136" r="10"/><circle cx="276" cy="96" r="10"/><circle cx="276" cy="396" r="10"/><circle cx="256" cy="176" r="10"/><circle cx="256" cy="336" r="10"/><circle cx="216" cy="376" r="10"/><circle cx="176" cy="276" r="10"/><circle cx="136" cy="296" r="10"/><circle cx="96" cy="256" r="10"/><path d="m116 146h10v20h-10c-5.522 0-10 4.478-10 10s4.478 10 10 10h40c5.522 0 10-4.478 10-10s-4.478-10-10-10h-10v-20h10c27.57 0 50-22.43 50-50 0-5.522-4.478-10-10-10h-20c-16.339 0-30.87 7.878-40 20.035-9.129-12.156-23.661-20.035-40-20.035h-20c-5.522 0-10 4.478-10 10 0 27.571 22.43 50 50 50zm60-40.01h8.286c-4.127 11.641-15.249 20.01-28.286 20.01h-8.286c4.127-11.64 15.249-20.01 28.286-20.01zm-80 .01c13.037 0 24.159 8.359 28.286 20h-8.286c-13.037 0-24.159-8.359-28.286-20z"/><path d="m262.442 2.92c-3.909-3.901-10.241-3.892-14.141.018l-34.862 34.945c-20.531-20.376-48.194-31.883-77.439-31.883-60.654 0-110 49.346-110 110 0 29.356 11.578 57.089 32.083 77.634l-55.163 55.305c-3.894 3.902-3.894 10.22 0 14.123l245.38 246.001c3.911 3.919 10.24 3.909 14.143.018l151.696-151.314c3.91-3.9 3.918-10.232.018-14.143-3.901-3.909-10.231-3.917-14.143-.018l-21.475 21.421-108.578-108.585 109.028-109.028 108.851 108.586-24.137 24.075c-3.91 3.9-3.918 10.232-.018 14.143 1.953 1.958 4.517 2.938 7.08 2.938 2.555 0 5.11-.974 7.063-2.92l31.234-31.155c1.88-1.876 2.938-4.424 2.938-7.08s-1.057-5.203-2.938-7.08c-2.259-2.255-246.244-245.626-246.62-246.001zm-216.442 113.08c0-49.626 40.374-90 90-90 49.897 0 90 40.467 90 90 0 42.76-29.24 77.194-67.23 87.093-2.571.669-4.77 2.334-6.111 4.627l-16.659 28.477-16.658-28.477c-1.342-2.292-3.539-3.957-6.109-4.627-38.819-10.118-67.233-45.383-67.233-87.093zm-21.876 140 49.361-49.487c9.402 6.52 19.659 11.479 30.631 14.789l23.252 39.748c1.794 3.065 5.08 4.95 8.632 4.95s6.838-1.885 8.632-4.95l23.252-39.747c9.385-2.832 18.27-6.894 26.552-12.104l47.24 47.243-108.697 108.697zm340.256 123.151-108.982 108.708-108.294-108.56 108.715-108.715zm-108.561-136.852-45.357-45.36c22.425-20.703 35.538-50.187 35.538-80.939 0-22.466-6.927-44.419-19.648-62.743l29.046-29.115 109.431 109.147z"/><circle cx="439" cy="319" r="10"/></g></svg>