<?xml version="1.0" encoding="utf-8"?>
<!-- Generator: Adobe Illustrator 24.1.0, SVG Export Plug-In . SVG Version: 6.00 Build 0)  -->
<svg version="1.1" id="Capa_1" xmlns="http://www.w3.org/2000/svg" xmlns:xlink="http://www.w3.org/1999/xlink" x="0px" y="0px"
	 viewBox="0 0 273 257" style="enable-background:new 0 0 273 257;" xml:space="preserve">
<style type="text/css">
	.st0{fill:#76A747;}
	.st1{fill:#CD0D89;}
</style>
<g>
	<path class="st0" d="M225.1,38.7c-0.2,0-0.3,0-0.5,0v0h-56.4v0c-5.2,0.2-9.4,4-10.3,9l-17.2,47.4h-22.2c0,0-16.6,1.6-22,2.9
		c-12.4,2.9-64.1,17.2-61.2,70.7c0.3,5.2,3.1,15.6,5.7,20.1c8,13.5,24.5,19.8,39.2,20v0.1c0,0,29.6,3.8,52.6-39.2
		c6.7-12.5,21.2-52.6,21.2-52.6h20.9v0c0.2,0,0.3,0,0.5,0c6.1,0,11-4.9,11-11c0-6.1-4.9-11-11-11c-0.2,0-0.3,0-0.5,0v0h-10.9
		l12.5-34.4h48.1v0c0.2,0,0.3,0,0.5,0c6.1,0,11-4.9,11-11C236.1,43.7,231.2,38.7,225.1,38.7z M112.1,161.4c-1.4,3.5-1.4,3-3.1,6.4
		C99.4,186.9,80.3,186,80.3,186v0.2c-6.2-0.4-14.8-2.9-17.2-13.5c-7.1-31.9,21-45.9,36.3-51.6c4.5-1.7,19.1-3.8,19.1-3.8h11.1
		L112.1,161.4z"/>
	<circle class="st1" cx="172.5" cy="147.3" r="11"/>
	<circle class="st1" cx="200.3" cy="147.3" r="11"/>
	<circle class="st1" cx="186.9" cy="174" r="11"/>
</g>
</svg>
