<?xml version="1.0" encoding="utf-8"?>
<!-- Generator: Adobe Illustrator 24.1.0, SVG Export Plug-In . SVG Version: 6.00 Build 0)  -->
<svg version="1.1" id="Capa_1" xmlns="http://www.w3.org/2000/svg" xmlns:xlink="http://www.w3.org/1999/xlink" x="0px" y="0px"
	 viewBox="0 0 322 333" style="enable-background:new 0 0 322 333;" xml:space="preserve">
<style type="text/css">
	.st0{fill:#FFFFFF;}
	.st1{fill:#CD0D89;}
</style>
<g>
	<path class="st0" d="M251.1,33.7c-0.2,0-0.3,0-0.5,0v0h-56.4v0c-5.2,0.2-9.4,4-10.3,9l-17.2,47.4h-22.2c0,0-16.6,1.6-22,2.9
		c-12.4,2.9-64.1,17.2-61.2,70.7c0.3,5.2,3.1,15.6,5.7,20.1c8,13.5,24.5,19.8,39.2,20v0.1c0,0,29.6,3.8,52.6-39.2
		c6.7-12.5,21.2-52.6,21.2-52.6h20.9v0c0.2,0,0.3,0,0.5,0c6.1,0,11-4.9,11-11c0-6.1-4.9-11-11-11c-0.2,0-0.3,0-0.5,0v0H190
		l12.5-34.4h48.1v0c0.2,0,0.3,0,0.5,0c6.1,0,11-4.9,11-11C262.1,38.7,257.1,33.7,251.1,33.7z M138,156.4c-1.4,3.5-1.4,3-3.1,6.4
		c-9.6,19.1-28.7,18.2-28.7,18.2v0.2c-6.2-0.4-14.8-2.9-17.2-13.5c-7.1-31.9,21-45.9,36.3-51.6c4.5-1.7,19.1-3.8,19.1-3.8h11.1
		L138,156.4z"/>
	<circle class="st1" cx="198.5" cy="142.2" r="11"/>
	<circle class="st1" cx="226.2" cy="142.2" r="11"/>
	<circle class="st1" cx="212.8" cy="169" r="11"/>
</g>
<g>
	<path class="st0" d="M49.7,238.3v9.2H30.6v9.9h14.3v8.9H30.6v19H19.1v-47H49.7z"/>
	<path class="st0" d="M67.2,247.5v9.5h15.3v8.8H67.2v10.3h17.4v9.2H55.8v-47h28.8v9.2H67.2z"/>
	<path class="st0" d="M134.1,285.3h-11.5l-19.2-29v29H92v-47h11.5l19.2,29.1v-29.1h11.5V285.3z"/>
	<path class="st0" d="M152.5,282.7c-3.7-2.1-6.6-4.9-8.8-8.6c-2.2-3.7-3.2-7.8-3.2-12.4c0-4.6,1.1-8.7,3.2-12.4
		c2.2-3.7,5.1-6.5,8.8-8.6c3.7-2.1,7.7-3.1,12.2-3.1c4.4,0,8.5,1,12.2,3.1c3.7,2.1,6.6,4.9,8.7,8.6c2.1,3.7,3.2,7.8,3.2,12.4
		c0,4.6-1.1,8.7-3.2,12.4c-2.1,3.7-5,6.6-8.7,8.6c-3.7,2.1-7.7,3.1-12.1,3.1C160.2,285.8,156.2,284.8,152.5,282.7z M173.7,271.6
		c2.3-2.5,3.4-5.8,3.4-9.9c0-4.2-1.1-7.5-3.4-9.9c-2.3-2.5-5.3-3.7-9-3.7c-3.8,0-6.8,1.2-9.1,3.7c-2.3,2.5-3.4,5.8-3.4,10
		c0,4.2,1.1,7.5,3.4,10c2.3,2.5,5.3,3.7,9.1,3.7C168.4,275.4,171.4,274.1,173.7,271.6z"/>
	<path class="st1" d="M239.2,238.3l-16.7,47h-14.3l-16.7-47h12.2l11.7,35.5l11.7-35.5H239.2z"/>
	<path class="st1" d="M255.4,238.3v47H244v-47H255.4z"/>
	<path class="st1" d="M294.4,241.3c3.7,2,6.6,4.7,8.6,8.3c2,3.6,3,7.6,3,12.3c0,4.6-1,8.7-3,12.3c-2,3.6-4.9,6.3-8.6,8.3
		c-3.7,2-8.1,2.9-13,2.9h-17.6v-47h17.6C286.3,238.3,290.6,239.3,294.4,241.3z M290.7,271.9c2.4-2.4,3.6-5.7,3.6-10
		c0-4.3-1.2-7.7-3.6-10.1s-5.8-3.6-10.1-3.6h-5.4v27.3h5.4C285,275.4,288.3,274.2,290.7,271.9z"/>
</g>
</svg>
